{
	"nodes":[{
		"name":"capelina_crusader_1",
		"translation":[0.0,
		0.0,
		0.0],
		"rotation":[-3.7493993930529858e-33,
		-1.0,
		6.123234262925839e-17,
		-6.123234262925839e-17],
		"scale":[1.0,
		1.0,
		1.0],
		"mesh":0
	}],
	"asset":{
		"version":"2.0",
		"generator":"Created using the official Cinema 4D glTF Exporter 1.000x284978"
	},
	"scenes":[{
		"nodes":[0]
	}],
	"meshes":[{
		"name":"capelina_crusader_1",
		"primitives":[{
			"attributes":{
				"POSITION":1,
				"NORMAL":2,
				"TEXCOORD_0":3
			},
			"indices":0,
			"material":0
		}]
	}],
	"accessors":[{
		"bufferView":0,
		"type":"SCALAR",
		"componentType":5123,
		"count":45864,
		"byteOffset":0,
		"min":[0],
		"max":[8330]
	},
	{
		"bufferView":1,
		"type":"VEC3",
		"componentType":5126,
		"count":8331,
		"byteOffset":0,
		"min":[-1.8133704662322999,
		-1.7500715255737305,
		-2.0076513290405275],
		"max":[1.8133704662322999,
		1.7500715255737305,
		2.0076513290405275]
	},
	{
		"bufferView":1,
		"type":"VEC3",
		"componentType":5126,
		"count":8331,
		"byteOffset":12,
		"min":[-0.9998692274093628,
		-0.9999480843544006,
		-0.999983549118042],
		"max":[0.999894380569458,
		0.9999843239784241,
		0.999900758266449]
	},
	{
		"bufferView":1,
		"type":"VEC2",
		"componentType":5126,
		"count":8331,
		"byteOffset":24,
		"min":[0.022168748080730439,
		0.008850015699863434],
		"max":[0.9808812141418457,
		0.9775936603546143]
	}],
	"bufferViews":[{
		"buffer":0,
		"byteOffset":0,
		"byteLength":91728,
		"target":34963
	},
	{
		"buffer":0,
		"byteOffset":91728,
		"byteStride":32,
		"byteLength":266592,
		"target":34962
	}],
	"buffers":[{
		"uri":"data:application/octet-stream;base64,",
		"byteLength":358320
	}],
	"materials":[{
		"pbrMetallicRoughness":{
			"baseColorFactor":[1.0,
			1.0,
			1.0,
			1.0],
			"metallicFactor":1.0,
			"roughnessFactor":1.0
		},
		"emissiveFactor":[0.0,
		0.0,
		0.0],
		"alphaMode":"OPAQUE",
		"doubleSided":false,
		"name":""
	}]
}